#Comment line ignore any data following # character 
#Hierarchical Translation and Rotation (.htr) file 
[Header]	
#Header keywords are followed by a single value 
FileType HTR		#Single word string
DataType HTRS		#Translation followed by rotation and scale data
FileVersion 1		#integer
NumSegments 84		#integer
NumFrames 2		#integer
DataFrameRate 30		#integer, data frame rate in this file
EulerRotationOrder ZYX
CalibrationUnits mm
RotationUnits Degrees
GlobalAxisofGravity Y
BoneLengthAxis Y
ScaleFactor 1.00
[SegmentNames&Hierarchy]
#CHILD	PARENT
MASTER GLOBAL
root MASTER
chest root
L_mid_tent01 root
R_mid_tent01 root
spine01 root
Bip01_Neck chest
L_humerus chest
R_humerus chest
weapon_bone chest
Bip01_Head Bip01_Neck
eye_left_bone Bip01_Head
eye_right_bone Bip01_Head
L_forearm L_humerus
L_front_hand L_forearm
L_weapon_bone L_forearm
L_front_hand01_01 L_front_hand
L_front_hand02_01 L_front_hand
L_front_hand03_01 L_front_hand
L_front_hand01_02 L_front_hand01_01
L_front_hand02_02 L_front_hand02_01
L_front_hand03_02 L_front_hand03_01
R_forearm R_humerus
R_front_hand R_forearm
R_weapon_bone R_forearm
R_front_hand01_01 R_front_hand
R_front_hand02_01 R_front_hand
R_front_hand03_01 R_front_hand
R_front_hand01_02 R_front_hand01_01
R_front_hand02_02 R_front_hand02_01
R_front_hand03_02 R_front_hand03_01
null_rope01_connect L_mid_tent01
Rope1_Seg01 null_rope01_connect
Rope1_Seg02 Rope1_Seg01
Rope1_Seg03 Rope1_Seg02
Rope1_Seg04 Rope1_Seg03
Rope1_Seg05 Rope1_Seg04
Rope1_Seg06 Rope1_Seg05
Rope1_Seg07 Rope1_Seg06
Rope1_Seg09 Rope1_Seg07
L_mid_hand01 Rope1_Seg09
L_mid_hand02 Rope1_Seg09
L_mid_hand03 Rope1_Seg09
null_rope02_connect R_mid_tent01
Rope2_Seg01 null_rope02_connect
Rope2_Seg02 Rope2_Seg01
Rope2_Seg03 Rope2_Seg02
Rope2_Seg04 Rope2_Seg03
Rope2_Seg05 Rope2_Seg04
Rope2_Seg06 Rope2_Seg05
Rope2_Seg07 Rope2_Seg06
Rope2_Seg09 Rope2_Seg07
R_mid_hand01 Rope2_Seg09
R_mid_hand02 Rope2_Seg09
R_mid_hand03 Rope2_Seg09
spine02 spine01
spine03 spine02
pelvis spine03
null_rope03_connect pelvis
null_rope04_connect pelvis
Rope3_Seg01 null_rope03_connect
Rope3_Seg02 Rope3_Seg01
Rope3_Seg03 Rope3_Seg02
Rope3_Seg04 Rope3_Seg03
Rope3_Seg05 Rope3_Seg04
Rope3_Seg06 Rope3_Seg05
Rope3_Seg07 Rope3_Seg06
Rope3_Seg08 Rope3_Seg07
Rope3_Seg09 Rope3_Seg08
R_rear_hand01 Rope3_Seg09
R_rear_hand02 Rope3_Seg09
R_rear_hand03 Rope3_Seg09
Rope4_Seg01 null_rope04_connect
Rope4_Seg02 Rope4_Seg01
Rope4_Seg03 Rope4_Seg02
Rope4_Seg04 Rope4_Seg03
Rope4_Seg05 Rope4_Seg04
Rope4_Seg06 Rope4_Seg05
Rope4_Seg07 Rope4_Seg06
Rope4_Seg08 Rope4_Seg07
Rope4_Seg09 Rope4_Seg08
L_rear_hand01 Rope4_Seg09
L_rear_hand02 Rope4_Seg09
L_rear_hand03 Rope4_Seg09
[BasePosition]
#SegmentName Tx, Ty, Tz, Rx, Ry, Rz, BoneLength
MASTER 0.000000 0.000000 0.000000 -90.000000 0.000000 0.000000 10.000000 
root 0.000000 0.000000 0.000000 0.000000 0.000000 0.000000 10.000000 
chest 0.000000 0.000000 0.000000 0.000000 0.000000 0.000000 10.000000 
L_mid_tent01 0.000000 0.000000 0.000000 0.000000 0.000000 0.000000 10.000000 
R_mid_tent01 0.000000 0.000000 0.000000 0.000000 0.000000 0.000000 10.000000 
spine01 0.000000 0.000000 0.000000 0.000000 0.000000 0.000000 10.000000 
Bip01_Neck 0.000000 0.000000 0.000000 0.000000 0.000000 0.000000 10.000000 
L_humerus 0.000000 0.000000 0.000000 0.000000 0.000000 0.000000 10.000000 
R_humerus 0.000000 0.000000 0.000000 0.000000 0.000000 0.000000 10.000000 
weapon_bone 0.000000 0.000000 0.000000 0.000000 0.000000 0.000000 10.000000 
Bip01_Head 0.000000 0.000000 0.000000 0.000000 0.000000 0.000000 10.000000 
eye_left_bone 0.000000 0.000000 0.000000 0.000000 0.000000 0.000000 10.000000 
eye_right_bone 0.000000 0.000000 0.000000 0.000000 0.000000 0.000000 10.000000 
L_forearm 0.000000 0.000000 0.000000 0.000000 0.000000 0.000000 10.000000 
L_front_hand 0.000000 0.000000 0.000000 0.000000 0.000000 0.000000 10.000000 
L_weapon_bone 0.000000 0.000000 0.000000 0.000000 0.000000 0.000000 10.000000 
L_front_hand01_01 0.000000 0.000000 0.000000 0.000000 0.000000 0.000000 10.000000 
L_front_hand02_01 0.000000 0.000000 0.000000 0.000000 0.000000 0.000000 10.000000 
L_front_hand03_01 0.000000 0.000000 0.000000 0.000000 0.000000 0.000000 10.000000 
L_front_hand01_02 0.000000 0.000000 0.000000 0.000000 0.000000 0.000000 10.000000 
L_front_hand02_02 0.000000 0.000000 0.000000 0.000000 0.000000 0.000000 10.000000 
L_front_hand03_02 0.000000 0.000000 0.000000 0.000000 0.000000 0.000000 10.000000 
R_forearm 0.000000 0.000000 0.000000 0.000000 0.000000 0.000000 10.000000 
R_front_hand 0.000000 0.000000 0.000000 0.000000 0.000000 0.000000 10.000000 
R_weapon_bone 0.000000 0.000000 0.000000 0.000000 0.000000 0.000000 10.000000 
R_front_hand01_01 0.000000 0.000000 0.000000 0.000000 0.000000 0.000000 10.000000 
R_front_hand02_01 0.000000 0.000000 0.000000 0.000000 0.000000 0.000000 10.000000 
R_front_hand03_01 0.000000 0.000000 0.000000 0.000000 0.000000 0.000000 10.000000 
R_front_hand01_02 0.000000 0.000000 0.000000 0.000000 0.000000 0.000000 10.000000 
R_front_hand02_02 0.000000 0.000000 0.000000 0.000000 0.000000 0.000000 10.000000 
R_front_hand03_02 0.000000 0.000000 0.000000 0.000000 0.000000 0.000000 10.000000 
null_rope01_connect 0.000000 0.000000 0.000000 0.000000 0.000000 0.000000 10.000000 
Rope1_Seg01 0.000000 0.000000 0.000000 0.000000 0.000000 0.000000 10.000000 
Rope1_Seg02 0.000000 0.000000 0.000000 0.000000 0.000000 0.000000 10.000000 
Rope1_Seg03 0.000000 0.000000 0.000000 0.000000 0.000000 0.000000 10.000000 
Rope1_Seg04 0.000000 0.000000 0.000000 0.000000 0.000000 0.000000 10.000000 
Rope1_Seg05 0.000000 0.000000 0.000000 0.000000 0.000000 0.000000 10.000000 
Rope1_Seg06 0.000000 0.000000 0.000000 0.000000 0.000000 0.000000 10.000000 
Rope1_Seg07 0.000000 0.000000 0.000000 0.000000 0.000000 0.000000 10.000000 
Rope1_Seg09 0.000000 0.000000 0.000000 0.000000 0.000000 0.000000 10.000000 
L_mid_hand01 0.000000 0.000000 0.000000 0.000000 0.000000 0.000000 10.000000 
L_mid_hand02 0.000000 0.000000 0.000000 0.000000 0.000000 0.000000 10.000000 
L_mid_hand03 0.000000 0.000000 0.000000 0.000000 0.000000 0.000000 10.000000 
null_rope02_connect 0.000000 0.000000 0.000000 0.000000 0.000000 0.000000 10.000000 
Rope2_Seg01 0.000000 0.000000 0.000000 0.000000 0.000000 0.000000 10.000000 
Rope2_Seg02 0.000000 0.000000 0.000000 0.000000 0.000000 0.000000 10.000000 
Rope2_Seg03 0.000000 0.000000 0.000000 0.000000 0.000000 0.000000 10.000000 
Rope2_Seg04 0.000000 0.000000 0.000000 0.000000 0.000000 0.000000 10.000000 
Rope2_Seg05 0.000000 0.000000 0.000000 0.000000 0.000000 0.000000 10.000000 
Rope2_Seg06 0.000000 0.000000 0.000000 0.000000 0.000000 0.000000 10.000000 
Rope2_Seg07 0.000000 0.000000 0.000000 0.000000 0.000000 0.000000 10.000000 
Rope2_Seg09 0.000000 0.000000 0.000000 0.000000 0.000000 0.000000 10.000000 
R_mid_hand01 0.000000 0.000000 0.000000 0.000000 0.000000 0.000000 10.000000 
R_mid_hand02 0.000000 0.000000 0.000000 0.000000 0.000000 0.000000 10.000000 
R_mid_hand03 0.000000 0.000000 0.000000 0.000000 0.000000 0.000000 10.000000 
spine02 0.000000 0.000000 0.000000 0.000000 0.000000 0.000000 10.000000 
spine03 0.000000 0.000000 0.000000 0.000000 0.000000 0.000000 10.000000 
pelvis 0.000000 0.000000 0.000000 0.000000 0.000000 0.000000 10.000000 
null_rope03_connect 0.000000 0.000000 0.000000 0.000000 0.000000 0.000000 10.000000 
null_rope04_connect 0.000000 0.000000 0.000000 0.000000 0.000000 0.000000 10.000000 
Rope3_Seg01 0.000000 0.000000 0.000000 0.000000 0.000000 0.000000 10.000000 
Rope3_Seg02 0.000000 0.000000 0.000000 0.000000 0.000000 0.000000 10.000000 
Rope3_Seg03 0.000000 0.000000 0.000000 0.000000 0.000000 0.000000 10.000000 
Rope3_Seg04 0.000000 0.000000 0.000000 0.000000 0.000000 0.000000 10.000000 
Rope3_Seg05 0.000000 0.000000 0.000000 0.000000 0.000000 0.000000 10.000000 
Rope3_Seg06 0.000000 0.000000 0.000000 0.000000 0.000000 0.000000 10.000000 
Rope3_Seg07 0.000000 0.000000 0.000000 0.000000 0.000000 0.000000 10.000000 
Rope3_Seg08 0.000000 0.000000 0.000000 0.000000 0.000000 0.000000 10.000000 
Rope3_Seg09 0.000000 0.000000 0.000000 0.000000 0.000000 0.000000 10.000000 
R_rear_hand01 0.000000 0.000000 0.000000 0.000000 0.000000 0.000000 10.000000 
R_rear_hand02 0.000000 0.000000 0.000000 0.000000 0.000000 0.000000 10.000000 
R_rear_hand03 0.000000 0.000000 0.000000 0.000000 0.000000 0.000000 10.000000 
Rope4_Seg01 0.000000 0.000000 0.000000 0.000000 0.000000 0.000000 10.000000 
Rope4_Seg02 0.000000 0.000000 0.000000 0.000000 0.000000 0.000000 10.000000 
Rope4_Seg03 0.000000 0.000000 0.000000 0.000000 0.000000 0.000000 10.000000 
Rope4_Seg04 0.000000 0.000000 0.000000 0.000000 0.000000 0.000000 10.000000 
Rope4_Seg05 0.000000 0.000000 0.000000 0.000000 0.000000 0.000000 10.000000 
Rope4_Seg06 0.000000 0.000000 0.000000 0.000000 0.000000 0.000000 10.000000 
Rope4_Seg07 0.000000 0.000000 0.000000 0.000000 0.000000 0.000000 10.000000 
Rope4_Seg08 0.000000 0.000000 0.000000 0.000000 0.000000 0.000000 10.000000 
Rope4_Seg09 0.000000 0.000000 0.000000 0.000000 0.000000 0.000000 10.000000 
L_rear_hand01 0.000000 0.000000 0.000000 0.000000 0.000000 0.000000 10.000000 
L_rear_hand02 0.000000 0.000000 0.000000 0.000000 0.000000 0.000000 10.000000 
L_rear_hand03 0.000000 0.000000 0.000000 0.000000 0.000000 0.000000 10.000000 
#Beginning of Data. Separated by tabs
#Fr	Tx	Ty	Tz	Rx	Ry	Rz	SF
[MASTER]
3 0.000005 62.822109 0.000000 0.001660 0.001660 0.001660 62.822113
4 0.000005 62.822109 0.000000 0.001660 0.001660 0.001660 62.822113
[root]
3 -16.502295 -62.822117 1500.000000 -89.700577 -27.450941 -90.557190 1501.405640
4 -16.502295 -62.822117 1500.000000 -87.524712 -27.199409 -91.012535 1501.405640
[chest]
3 -84.512650 -34.090519 0.000000 -3.895408 0.131668 -179.135193 91.129311
4 -84.512650 -34.090519 0.000000 -2.620814 -1.077894 -179.902802 91.129311
[L_mid_tent01]
3 27.320276 22.165628 -250.051620 5.978594 39.630760 85.554123 252.514404
4 27.309927 22.171530 -249.984802 3.862628 36.229202 81.347610 252.447632
[R_mid_tent01]
3 23.228794 24.509907 226.238495 158.557709 -44.868080 88.706589 228.744751
4 23.228794 24.509907 226.238495 160.432037 -47.061241 87.899765 228.744751
[spine01]
3 -0.361383 -0.195265 0.000000 0.789846 0.450717 15.108562 0.410763
4 -0.361383 -0.195265 0.000000 0.744149 0.453190 14.873899 0.410763
[Bip01_Neck]
3 165.484543 71.581718 0.000119 175.896118 1.177290 24.871183 180.302734
4 165.484543 71.581718 0.000119 175.896118 1.177290 24.871183 180.302734
[L_humerus]
3 -13.983130 -135.272980 -120.471481 -168.902008 81.218842 -82.087242 181.680161
4 -13.983130 -135.272980 -120.471481 -162.354660 80.673210 -76.408684 181.680161
[R_humerus]
3 -13.983309 -135.273102 125.287651 -164.748093 -69.000717 -98.976997 184.909012
4 -13.983309 -135.273102 125.287651 -164.166534 -68.689209 -100.353745 184.909012
[weapon_bone]
3 235.964890 -300.705902 0.000000 0.000000 -89.951546 -128.212341 382.234833
4 235.964890 -300.705902 0.000000 0.000000 -89.951546 -128.212341 382.234833
[Bip01_Head]
3 261.355865 108.959358 -2.864226 3.239522 5.843198 -62.456898 283.173523
4 261.355865 108.959366 -2.864226 4.375674 5.844414 -62.456581 283.173523
[eye_left_bone]
3 -24.626970 125.451866 -64.772606 0.000000 -90.000000 -99.840431 143.318359
4 -24.626970 125.451866 -64.772606 0.000000 -90.000000 -99.840431 143.318359
[eye_right_bone]
3 -24.626970 125.451866 64.327362 0.000000 -89.960434 80.159386 143.117676
4 -24.626970 125.451866 64.327362 0.000000 -89.960434 80.159386 143.117676
[L_forearm]
3 322.776093 0.000000 -0.000119 0.000639 0.002259 -58.405418 322.776093
4 322.776093 0.000000 -0.000119 0.000608 0.002267 -59.969524 322.776093
[L_front_hand]
3 241.149185 -0.042021 -3.300071 -178.956085 -2.014721 -18.804001 241.171753
4 241.149185 -0.042021 -3.300071 -179.219559 -2.130045 -11.543150 241.171753
[L_weapon_bone]
3 156.183838 0.000000 0.000000 0.001850 0.001445 14.018100 156.183838
4 156.183838 0.000000 0.000000 0.001988 0.001247 25.808270 156.183838
[L_front_hand01_01]
3 86.095154 20.947098 -0.655860 -0.345630 -0.486632 72.985954 88.609184
4 86.095154 20.947098 -0.655860 -0.358019 -0.483663 74.277168 88.609184
[L_front_hand02_01]
3 86.935165 -11.437475 24.513514 150.809296 -58.778587 -57.192558 91.046425
4 86.935165 -11.437475 24.513514 152.710815 -59.393673 -59.407352 91.046425
[L_front_hand03_01]
3 86.637497 -14.123976 -20.424902 -150.571686 56.997833 -58.742687 90.126129
4 86.637497 -14.123976 -20.424902 -152.345215 57.619305 -60.852303 90.126129
[L_front_hand01_02]
3 71.020905 -0.000179 0.000030 0.000334 -0.002323 -106.379379 71.020905
4 71.020905 -0.000179 0.000030 0.001534 0.001777 -8.378850 71.020905
[L_front_hand02_02]
3 71.020927 -0.000119 0.000060 0.000334 -0.002323 -106.379379 71.020927
4 71.020927 -0.000119 0.000060 0.001534 0.001777 -8.378850 71.020927
[L_front_hand03_02]
3 71.020905 -0.000060 0.000060 0.000334 -0.002323 -106.379379 71.020905
4 71.020905 -0.000060 0.000060 0.001534 0.001777 -8.378850 71.020905
[R_forearm]
3 322.776428 -0.000060 0.000030 0.200599 -0.073186 -71.296852 322.776428
4 322.776428 -0.000060 0.000030 0.200762 -0.072738 -71.552689 322.776428
[R_front_hand]
3 238.847015 -0.006795 2.210259 -1.147740 1.289178 -30.374069 238.857239
4 238.847015 -0.006795 2.210259 -0.891974 1.476890 -19.840889 238.857239
[R_weapon_bone]
3 155.664093 0.002503 -0.000030 0.003133 0.001932 -116.939850 155.664078
4 155.664093 0.002503 -0.000030 0.003023 0.002099 -123.158104 155.664078
[R_front_hand01_01]
3 87.624611 14.231146 22.918642 -151.019943 -58.847031 57.544685 91.683487
4 87.624611 14.231146 22.918642 -154.633499 -59.950619 61.746044 91.683487
[R_front_hand02_01]
3 89.356956 14.367283 -19.491137 151.211227 57.208401 59.740421 92.579636
4 89.356956 14.367283 -19.491137 154.602661 58.302849 63.744389 92.579636
[R_front_hand03_01]
3 87.286232 -22.307278 -0.143439 0.142368 -0.428417 -73.368439 90.091743
4 87.286232 -22.307278 -0.143439 0.162155 -0.423168 -75.767921 90.091743
[R_front_hand01_02]
3 71.020905 0.000060 0.000119 0.002323 -0.000334 106.381386 71.020905
4 71.020905 0.000060 0.000119 0.001777 0.001534 8.377220 71.020905
[R_front_hand02_02]
3 71.020844 -0.000030 -0.000119 0.002323 -0.000334 106.381386 71.020836
4 71.020844 -0.000030 -0.000119 0.001777 0.001534 8.377220 71.020836
[R_front_hand03_02]
3 71.020905 0.000000 0.000030 0.002323 -0.000334 106.381386 71.020905
4 71.020905 0.000000 0.000030 0.001777 0.001534 8.377220 71.020905
[null_rope01_connect]
3 328.732483 0.000000 -0.000238 -138.197891 -49.916084 172.070465 328.732483
4 328.732483 0.000000 -0.000238 -135.612823 -55.282574 172.290894 328.732483
[Rope1_Seg01]
3 0.000000 0.000000 0.000000 116.188347 17.240271 156.027359 0.000000
4 0.000000 0.000000 0.000000 109.900436 -5.552523 174.083954 0.000000
[Rope1_Seg02]
3 139.999863 -0.000179 0.000000 5.269467 -22.665752 -9.940467 139.999863
4 139.999863 -0.000179 0.000000 18.124857 -30.331863 -25.658255 139.999863
[Rope1_Seg03]
3 139.999924 0.000060 -0.000060 0.826127 -15.104913 -5.423169 139.999924
4 139.999924 0.000060 -0.000060 5.832751 -19.425768 -12.405581 139.999924
[Rope1_Seg04]
3 139.999924 -0.000060 -0.000119 -6.417755 -26.341892 11.110045 139.999924
4 139.999924 -0.000060 -0.000119 -3.052205 -26.546190 7.496543 139.999924
[Rope1_Seg05]
3 139.999832 0.000119 -0.000060 -4.095222 -10.606524 3.548324 139.999832
4 139.999832 0.000119 -0.000060 -3.825907 -14.062601 4.503164 139.999832
[Rope1_Seg06]
3 139.999954 0.000119 -0.000060 -2.474625 -4.767367 0.976093 139.999954
4 139.999954 0.000119 -0.000060 -2.282716 -5.725717 0.918199 139.999954
[Rope1_Seg07]
3 139.999985 0.000060 0.000000 -1.712040 -2.895162 0.465494 139.999985
4 139.999985 0.000060 0.000000 -1.579080 -3.411015 0.409913 139.999985
[Rope1_Seg09]
3 121.602913 0.000119 -0.000089 -89.793175 -1.359789 0.847147 121.602913
4 121.602913 0.000119 -0.000089 -89.793175 -1.359789 0.847147 121.602913
[L_mid_hand01]
3 103.859421 1.038730 8.195221 111.431305 -47.263851 -16.612017 104.187431
4 103.859421 1.038730 8.195221 111.431305 -47.263851 -16.612017 104.187431
[L_mid_hand02]
3 105.572853 -4.139662 -10.864139 -150.709808 35.166882 -45.161087 106.211075
4 105.572853 -4.139662 -10.864139 -150.709808 35.166882 -45.161087 106.211075
[L_mid_hand03]
3 104.641464 17.579376 -3.913581 -12.649597 13.975001 50.985863 106.179977
4 104.641464 17.579376 -3.913581 -12.649596 13.974999 50.985855 106.179977
[null_rope02_connect]
3 328.732849 0.000179 -0.000119 -122.544426 41.481785 19.567717 328.732849
4 328.732849 0.000179 -0.000119 -126.190834 38.556374 15.084166 328.732849
[Rope2_Seg01]
3 -0.000074 0.000135 0.000144 -83.799179 53.981586 12.206215 0.000211
4 -0.000073 0.000135 0.000140 -119.775085 54.786312 -18.942204 0.000208
[Rope2_Seg02]
3 139.999741 -0.000060 -0.000119 3.826261 -10.888889 -2.063257 139.999756
4 139.999741 -0.000060 -0.000119 10.217166 -10.399716 -6.262294 139.999756
[Rope2_Seg03]
3 140.000107 0.000030 0.000000 3.473347 -12.833403 -3.371913 140.000107
4 140.000107 0.000030 0.000000 10.436475 -16.464386 -8.023570 140.000107
[Rope2_Seg04]
3 139.999802 0.000000 -0.000060 0.913634 -21.827087 -0.053612 139.999802
4 139.999802 0.000000 -0.000060 6.597606 -23.197847 -6.862890 139.999802
[Rope2_Seg05]
3 139.999985 -0.000060 0.000119 -1.608816 -18.537924 6.356223 139.999985
4 139.999985 -0.000060 0.000119 -1.381861 -19.945374 7.486078 139.999985
[Rope2_Seg06]
3 139.999893 -0.000030 -0.000119 -0.762524 -6.742205 1.785635 139.999893
4 139.999893 -0.000030 -0.000119 -0.346410 -8.302667 3.632391 139.999893
[Rope2_Seg07]
3 139.999893 0.000060 -0.000060 -0.549648 -3.649931 0.840591 139.999893
4 139.999893 0.000060 -0.000060 -0.349641 -4.328109 1.306652 139.999893
[Rope2_Seg09]
3 121.338966 0.000089 -0.000060 33.793236 -1.359788 -0.847141 121.338966
4 121.338966 0.000089 -0.000060 33.793236 -1.359788 -0.847141 121.338966
[R_mid_hand01]
3 104.680779 11.144459 -10.335981 -34.269650 35.095989 42.885235 105.778534
4 104.680779 11.144459 -10.335981 -34.269650 35.095989 42.885235 105.778534
[R_mid_hand02]
3 104.070427 2.443552 8.231699 68.449066 -47.537163 16.779839 104.424065
4 104.070427 2.443552 8.231699 68.449066 -47.537163 16.779839 104.424065
[R_mid_hand03]
3 106.028137 -11.221827 -5.996406 -171.106766 13.128626 -52.726494 106.788818
4 106.028137 -11.221827 -5.996406 -171.106766 13.128626 -52.726494 106.788818
[spine02]
3 129.756927 0.001550 0.000119 -0.244043 -4.136501 -4.439725 129.756927
4 129.756927 0.001550 0.000119 -0.239498 -4.156498 -4.543883 129.756927
[spine03]
3 78.629265 0.084686 -4.747390 0.524611 4.066248 -3.538507 78.772491
4 78.637024 0.083313 -4.671688 0.627291 3.875159 -2.575347 78.775719
[pelvis]
3 169.435242 0.051022 0.000000 -53.299496 -3.973753 -3.585850 169.435257
4 169.435242 0.051022 0.000000 -96.624786 -6.897645 -1.039163 169.435257
[null_rope03_connect]
3 -1.257226 -2.466202 137.391083 -158.276230 -37.944698 -86.288956 137.418976
4 -1.257226 -2.466202 137.391083 -158.760330 3.230490 -84.041313 137.418976
[null_rope04_connect]
3 -1.259640 -2.480268 -137.844437 -158.276230 -37.944698 -86.288956 137.872513
4 -1.259640 -2.480268 -137.844437 -158.760330 3.230490 -84.041313 137.872513
[Rope3_Seg01]
3 0.000000 0.000000 0.000000 -137.439102 -19.713879 -57.123726 0.000000
4 0.000000 0.000000 0.000000 -130.284897 -0.800032 -62.669765 0.000000
[Rope3_Seg02]
3 139.999924 -0.000119 0.000060 27.259745 -41.311546 -2.872214 139.999924
4 139.999924 -0.000119 0.000060 -4.138042 -23.500029 38.207340 139.999924
[Rope3_Seg03]
3 139.999924 -0.000119 0.000119 27.336954 -49.457127 32.507061 139.999924
4 139.999924 -0.000119 0.000119 -20.961729 -18.083580 47.064659 139.999924
[Rope3_Seg04]
3 139.999924 0.000119 0.000000 6.449939 -14.338821 21.598320 139.999924
4 139.999924 0.000119 0.000000 -11.432679 -20.698107 9.097242 139.999924
[Rope3_Seg05]
3 139.999924 -0.000238 0.000060 1.886332 -5.149031 9.210775 139.999924
4 139.999924 -0.000238 0.000060 -3.211252 -14.899695 -0.760892 139.999924
[Rope3_Seg06]
3 139.999893 -0.000119 -0.000060 0.948198 -1.698598 3.920748 139.999893
4 139.999893 -0.000119 -0.000060 -0.463822 -5.727085 0.198178 139.999893
[Rope3_Seg07]
3 139.999771 0.000060 -0.000119 0.776330 -1.014336 2.463021 139.999771
4 139.999771 0.000060 -0.000119 0.100435 -3.421421 0.171836 139.999771
[Rope3_Seg08]
3 139.999985 -0.000060 0.000000 0.671853 -0.580709 1.467201 139.999985
4 139.999985 -0.000060 0.000000 0.341125 -2.016608 0.104478 139.999985
[Rope3_Seg09]
3 90.185997 -0.000179 -0.000060 89.793228 -1.359877 -0.847183 90.185997
4 90.185997 -0.000179 -0.000060 89.793228 -1.359877 -0.847183 90.185997
[R_rear_hand01]
3 103.366196 -6.073594 -10.757982 -166.970291 21.129854 -46.704182 104.101845
4 103.366196 -6.073594 -10.757982 -166.970291 21.129850 -46.704182 104.101845
[R_rear_hand02]
3 100.509819 12.039542 -7.992327 -28.148869 27.804199 44.102722 101.543350
4 100.509819 12.039542 -7.992327 -28.148869 27.804199 44.102722 101.543350
[R_rear_hand03]
3 101.539970 5.215704 5.435467 81.628395 -47.127728 10.016968 101.819031
4 101.539970 5.215704 5.435467 81.628380 -47.127724 10.016966 101.819031
[Rope4_Seg01]
3 -0.000017 -0.000074 -0.000144 52.830811 -29.985577 -111.192673 0.000163
4 -0.000017 -0.000073 -0.000140 47.467690 -45.679672 -96.628204 0.000159
[Rope4_Seg02]
3 139.999985 0.000060 0.000119 7.891713 -26.113443 14.167638 139.999985
4 139.999985 0.000060 0.000119 1.314470 -9.638014 17.651997 139.999985
[Rope4_Seg03]
3 139.999924 0.000000 -0.000238 24.970118 -43.684616 46.094028 139.999924
4 139.999924 0.000000 -0.000238 -1.763020 -20.205568 42.807693 139.999924
[Rope4_Seg04]
3 139.999985 0.000000 0.000119 11.644686 -2.960681 22.167126 139.999985
4 139.999985 0.000000 0.000119 -0.913690 -13.942539 33.312130 139.999985
[Rope4_Seg05]
3 139.999802 -0.000060 -0.000119 1.513332 1.519417 4.256951 139.999802
4 139.999802 -0.000060 -0.000119 0.305129 2.852923 6.409364 139.999802
[Rope4_Seg06]
3 139.999924 0.000000 0.000060 0.500699 1.285198 1.713719 139.999924
4 139.999924 0.000000 0.000060 0.340799 6.221077 0.134100 139.999924
[Rope4_Seg07]
3 139.999802 0.000000 0.000000 0.747380 0.704512 2.212252 139.999802
4 139.999802 0.000000 0.000000 0.159699 2.522476 1.335921 139.999802
[Rope4_Seg08]
3 139.999924 0.000000 0.000119 -1.100813 0.455112 1.377243 139.999924
4 139.999924 0.000000 0.000119 -1.535552 1.129545 1.114313 139.999924
[Rope4_Seg09]
3 90.185791 0.000060 0.000060 -135.617828 2.228885 0.850567 90.185791
4 90.185791 0.000060 0.000060 -135.617828 2.228885 0.850567 90.185791
[L_rear_hand01]
3 101.696655 -8.392275 -7.654577 -27.705481 -28.251705 134.947800 102.329041
4 101.696655 -8.392275 -7.654577 -27.705481 -28.251705 134.947800 102.329041
[L_rear_hand02]
3 102.726799 -1.568258 5.773216 81.477219 48.065086 169.775513 102.900848
4 102.726799 -1.568258 5.773216 81.477219 48.065086 169.775513 102.900848
[L_rear_hand03]
3 104.552910 9.721220 -10.420293 -167.330078 -21.338425 -132.303940 105.519653
4 104.552910 9.721220 -10.420293 -167.330078 -21.338425 -132.303940 105.519653
